<mxfile host="app.diagrams.net" modified="2023-03-17T15:20:24.118Z" agent="5.0 (Macintosh; Intel Mac OS X 10_15_7) AppleWebKit/537.36 (KHTML, like Gecko) Chrome/111.0.0.0 Safari/537.36" etag="WodizeEzNnwUB-gG7Ltm" version="21.0.6" type="github">
  <diagram name="Page-1" id="jYxdMA6Qu_grdp9TFzYa">
    <mxGraphModel dx="1674" dy="681" grid="1" gridSize="10" guides="1" tooltips="1" connect="1" arrows="1" fold="1" page="1" pageScale="1" pageWidth="827" pageHeight="1169" math="0" shadow="0">
      <root>
        <mxCell id="0" />
        <mxCell id="1" parent="0" />
        <mxCell id="rvvf9mno5lWTCZXlrnOx-1" value="" style="rounded=1;whiteSpace=wrap;html=1;" vertex="1" parent="1">
          <mxGeometry x="70" y="260" width="330" height="200" as="geometry" />
        </mxCell>
        <mxCell id="rvvf9mno5lWTCZXlrnOx-3" value="" style="rounded=1;whiteSpace=wrap;html=1;" vertex="1" parent="1">
          <mxGeometry x="500" y="420" width="200" height="150" as="geometry" />
        </mxCell>
        <mxCell id="rvvf9mno5lWTCZXlrnOx-8" value="argocd" style="rounded=1;whiteSpace=wrap;html=1;fillColor=#D5E8D4;" vertex="1" parent="1">
          <mxGeometry x="567" y="430" width="66" height="50" as="geometry" />
        </mxCell>
        <mxCell id="rvvf9mno5lWTCZXlrnOx-9" value="" style="rounded=1;whiteSpace=wrap;html=1;fillColor=#999999;" vertex="1" parent="1">
          <mxGeometry x="510" y="500" width="174.99999999999997" height="60" as="geometry" />
        </mxCell>
        <mxCell id="rvvf9mno5lWTCZXlrnOx-15" value="cluster2" style="text;html=1;strokeColor=none;fillColor=none;align=center;verticalAlign=middle;whiteSpace=wrap;rounded=0;" vertex="1" parent="1">
          <mxGeometry x="566.61" y="390" width="60" height="30" as="geometry" />
        </mxCell>
        <mxCell id="rvvf9mno5lWTCZXlrnOx-20" value="" style="group" vertex="1" connectable="0" parent="1">
          <mxGeometry x="515.1441176470588" y="500" width="164.7088235294118" height="50" as="geometry" />
        </mxCell>
        <mxCell id="rvvf9mno5lWTCZXlrnOx-10" value="cluster&lt;br&gt;agent" style="rounded=1;whiteSpace=wrap;html=1;" vertex="1" parent="rvvf9mno5lWTCZXlrnOx-20">
          <mxGeometry y="10" width="51.470588235294116" height="40" as="geometry" />
        </mxCell>
        <mxCell id="rvvf9mno5lWTCZXlrnOx-11" value="work&lt;br&gt;agent" style="rounded=1;whiteSpace=wrap;html=1;" vertex="1" parent="rvvf9mno5lWTCZXlrnOx-20">
          <mxGeometry x="113.23823529411766" y="10" width="51.470588235294116" height="40" as="geometry" />
        </mxCell>
        <mxCell id="rvvf9mno5lWTCZXlrnOx-13" value="&lt;b&gt;klusterlet&lt;/b&gt;" style="text;html=1;strokeColor=none;fillColor=none;align=center;verticalAlign=middle;whiteSpace=wrap;rounded=0;" vertex="1" parent="rvvf9mno5lWTCZXlrnOx-20">
          <mxGeometry x="51.47352941176473" width="61.764705882352935" height="30" as="geometry" />
        </mxCell>
        <mxCell id="rvvf9mno5lWTCZXlrnOx-21" value="" style="group" vertex="1" connectable="0" parent="1">
          <mxGeometry x="515.1441176470588" y="500" width="164.7088235294118" height="50" as="geometry" />
        </mxCell>
        <mxCell id="rvvf9mno5lWTCZXlrnOx-22" value="cluster&lt;br&gt;agent" style="rounded=1;whiteSpace=wrap;html=1;" vertex="1" parent="rvvf9mno5lWTCZXlrnOx-21">
          <mxGeometry y="10" width="51.470588235294116" height="40" as="geometry" />
        </mxCell>
        <mxCell id="rvvf9mno5lWTCZXlrnOx-23" value="work&lt;br&gt;agent" style="rounded=1;whiteSpace=wrap;html=1;" vertex="1" parent="rvvf9mno5lWTCZXlrnOx-21">
          <mxGeometry x="113.23823529411766" y="10" width="51.470588235294116" height="40" as="geometry" />
        </mxCell>
        <mxCell id="rvvf9mno5lWTCZXlrnOx-41" value="" style="group" vertex="1" connectable="0" parent="1">
          <mxGeometry x="180" y="380" width="200" height="60" as="geometry" />
        </mxCell>
        <mxCell id="rvvf9mno5lWTCZXlrnOx-25" value="" style="rounded=1;whiteSpace=wrap;html=1;fillColor=#999999;" vertex="1" parent="rvvf9mno5lWTCZXlrnOx-41">
          <mxGeometry x="-23.52941176470588" width="223.52941176470588" height="60" as="geometry" />
        </mxCell>
        <mxCell id="rvvf9mno5lWTCZXlrnOx-35" value="registration&lt;br&gt;controller" style="rounded=1;whiteSpace=wrap;html=1;" vertex="1" parent="rvvf9mno5lWTCZXlrnOx-41">
          <mxGeometry x="-11.76470588235294" y="15" width="70.58823529411765" height="40" as="geometry" />
        </mxCell>
        <mxCell id="rvvf9mno5lWTCZXlrnOx-40" value="placement&lt;br&gt;controller" style="rounded=1;whiteSpace=wrap;html=1;" vertex="1" parent="rvvf9mno5lWTCZXlrnOx-41">
          <mxGeometry x="120.00176470588235" y="15" width="70.58823529411765" height="40" as="geometry" />
        </mxCell>
        <mxCell id="rvvf9mno5lWTCZXlrnOx-44" value="&lt;b&gt;cluster&lt;br&gt;manager&lt;/b&gt;" style="text;html=1;strokeColor=none;fillColor=none;align=center;verticalAlign=middle;whiteSpace=wrap;rounded=0;" vertex="1" parent="rvvf9mno5lWTCZXlrnOx-41">
          <mxGeometry x="52.94352941176471" y="15" width="70.58823529411765" height="30" as="geometry" />
        </mxCell>
        <mxCell id="rvvf9mno5lWTCZXlrnOx-45" value="" style="sketch=0;html=1;dashed=0;whitespace=wrap;fillColor=#2875E2;strokeColor=#ffffff;points=[[0.005,0.63,0],[0.1,0.2,0],[0.9,0.2,0],[0.5,0,0],[0.995,0.63,0],[0.72,0.99,0],[0.5,1,0],[0.28,0.99,0]];verticalLabelPosition=bottom;align=center;verticalAlign=top;shape=mxgraph.kubernetes.icon;prIcon=deploy" vertex="1" parent="1">
          <mxGeometry x="340" y="287.5" width="30" height="40" as="geometry" />
        </mxCell>
        <mxCell id="rvvf9mno5lWTCZXlrnOx-46" value="MultiCluster&lt;br&gt;Application&lt;br&gt;Controller" style="text;html=1;strokeColor=none;fillColor=none;align=center;verticalAlign=middle;whiteSpace=wrap;rounded=0;" vertex="1" parent="1">
          <mxGeometry x="320" y="327.5" width="60" height="30" as="geometry" />
        </mxCell>
        <mxCell id="rvvf9mno5lWTCZXlrnOx-63" value="" style="rounded=1;whiteSpace=wrap;html=1;fillColor=#97D077;" vertex="1" parent="1">
          <mxGeometry x="80" y="280" width="70" height="160" as="geometry" />
        </mxCell>
        <mxCell id="rvvf9mno5lWTCZXlrnOx-47" value="cluster1&lt;br&gt;ns" style="rounded=1;whiteSpace=wrap;html=1;fillColor=#FF9999;" vertex="1" parent="1">
          <mxGeometry x="90" y="285" width="50" height="45" as="geometry" />
        </mxCell>
        <mxCell id="rvvf9mno5lWTCZXlrnOx-48" value="cluster2&lt;br&gt;ns" style="rounded=1;whiteSpace=wrap;html=1;fillColor=#9999FF;" vertex="1" parent="1">
          <mxGeometry x="90" y="390" width="50" height="40" as="geometry" />
        </mxCell>
        <mxCell id="rvvf9mno5lWTCZXlrnOx-51" value="" style="rounded=1;whiteSpace=wrap;html=1;" vertex="1" parent="1">
          <mxGeometry x="500" y="160" width="200" height="150" as="geometry" />
        </mxCell>
        <mxCell id="rvvf9mno5lWTCZXlrnOx-52" value="argocd" style="rounded=1;whiteSpace=wrap;html=1;fillColor=#D5E8D4;" vertex="1" parent="1">
          <mxGeometry x="569.64" y="250" width="66" height="50" as="geometry" />
        </mxCell>
        <mxCell id="rvvf9mno5lWTCZXlrnOx-53" value="" style="rounded=1;whiteSpace=wrap;html=1;fillColor=#999999;" vertex="1" parent="1">
          <mxGeometry x="515.14" y="170" width="174.99999999999997" height="60" as="geometry" />
        </mxCell>
        <mxCell id="rvvf9mno5lWTCZXlrnOx-54" value="cluster1" style="text;html=1;strokeColor=none;fillColor=none;align=center;verticalAlign=middle;whiteSpace=wrap;rounded=0;" vertex="1" parent="1">
          <mxGeometry x="566.61" y="130" width="60" height="30" as="geometry" />
        </mxCell>
        <mxCell id="rvvf9mno5lWTCZXlrnOx-59" value="" style="group" vertex="1" connectable="0" parent="1">
          <mxGeometry x="520.2941176470588" y="170" width="164.7088235294118" height="50" as="geometry" />
        </mxCell>
        <mxCell id="rvvf9mno5lWTCZXlrnOx-60" value="cluster&lt;br&gt;agent" style="rounded=1;whiteSpace=wrap;html=1;" vertex="1" parent="rvvf9mno5lWTCZXlrnOx-59">
          <mxGeometry y="10" width="51.470588235294116" height="40" as="geometry" />
        </mxCell>
        <mxCell id="rvvf9mno5lWTCZXlrnOx-61" value="work&lt;br&gt;agent" style="rounded=1;whiteSpace=wrap;html=1;" vertex="1" parent="rvvf9mno5lWTCZXlrnOx-59">
          <mxGeometry x="113.23823529411766" y="10" width="51.470588235294116" height="40" as="geometry" />
        </mxCell>
        <mxCell id="rvvf9mno5lWTCZXlrnOx-62" value="&lt;b&gt;klusterlet&lt;/b&gt;" style="text;html=1;strokeColor=none;fillColor=none;align=center;verticalAlign=middle;whiteSpace=wrap;rounded=0;" vertex="1" parent="rvvf9mno5lWTCZXlrnOx-59">
          <mxGeometry x="51.47352941176473" width="61.764705882352935" height="30" as="geometry" />
        </mxCell>
        <mxCell id="rvvf9mno5lWTCZXlrnOx-65" value="&lt;b&gt;managed&lt;br&gt;clusterset&lt;/b&gt;" style="text;html=1;strokeColor=none;fillColor=none;align=center;verticalAlign=middle;whiteSpace=wrap;rounded=0;" vertex="1" parent="1">
          <mxGeometry x="85" y="345" width="60" height="30" as="geometry" />
        </mxCell>
        <mxCell id="rvvf9mno5lWTCZXlrnOx-7" style="edgeStyle=orthogonalEdgeStyle;rounded=0;orthogonalLoop=1;jettySize=auto;html=1;exitX=0.5;exitY=1;exitDx=0;exitDy=0;entryX=0.5;entryY=1;entryDx=0;entryDy=0;" edge="1" parent="1" source="rvvf9mno5lWTCZXlrnOx-23" target="rvvf9mno5lWTCZXlrnOx-48">
          <mxGeometry relative="1" as="geometry">
            <Array as="points">
              <mxPoint x="654" y="640" />
              <mxPoint x="115" y="640" />
            </Array>
          </mxGeometry>
        </mxCell>
        <mxCell id="rvvf9mno5lWTCZXlrnOx-6" style="edgeStyle=orthogonalEdgeStyle;rounded=0;orthogonalLoop=1;jettySize=auto;html=1;exitX=0.5;exitY=0;exitDx=0;exitDy=0;entryX=0.5;entryY=0;entryDx=0;entryDy=0;" edge="1" parent="1" source="rvvf9mno5lWTCZXlrnOx-61" target="rvvf9mno5lWTCZXlrnOx-47">
          <mxGeometry relative="1" as="geometry">
            <mxPoint x="600" y="190" as="sourcePoint" />
            <Array as="points">
              <mxPoint x="659" y="100" />
              <mxPoint x="115" y="100" />
            </Array>
          </mxGeometry>
        </mxCell>
      </root>
    </mxGraphModel>
  </diagram>
</mxfile>
